<?xml version="1.0" encoding="UTF-8" standalone="no"?><svg   xmlns:dc="http://purl.org/dc/elements/1.1/"   xmlns:cc="http://creativecommons.org/ns#"   xmlns:rdf="http://www.w3.org/1999/02/22-rdf-syntax-ns#"   xmlns:svg="http://www.w3.org/2000/svg"   xmlns="http://www.w3.org/2000/svg"   xmlns:sodipodi="http://sodipodi.sourceforge.net/DTD/sodipodi-0.dtd"   xmlns:inkscape="http://www.inkscape.org/namespaces/inkscape"   width="1000"   height="406.90384"   viewBox="0 0 1000 406.90384"   version="1.1"   id="svg17"   sodipodi:docname="Svt2.svg"   inkscape:version="0.92.3 (2405546, 2018-03-11)">  <metadata     id="metadata21">    <rdf:RDF>      <cc:Work         rdf:about="">        <dc:format>image/svg+xml</dc:format>        <dc:type           rdf:resource="http://purl.org/dc/dcmitype/StillImage" />        <dc:title>Svt2</dc:title>      </cc:Work>    </rdf:RDF>  </metadata>  <sodipodi:namedview     pagecolor="#ffffff"     bordercolor="#666666"     borderopacity="1"     objecttolerance="10"     gridtolerance="10"     guidetolerance="10"     inkscape:pageopacity="0"     inkscape:pageshadow="2"     inkscape:window-width="640"     inkscape:window-height="480"     id="namedview19"     showgrid="false"     fit-margin-top="0"     fit-margin-left="0"     fit-margin-right="0"     fit-margin-bottom="0"     inkscape:zoom="0.61135274"     inkscape:cx="503.03838"     inkscape:cy="238.5481"     inkscape:current-layer="Svt2" />  <title     id="title2">Svt2</title>  <desc     id="desc4">Created with Sketch.</desc>  <defs     id="defs6" />  <g     id="Icons-Copy"     style="fill:none;fill-rule:evenodd;stroke:none;stroke-width:1"     transform="translate(-125.00055,-197.62075)">    <g       id="Svt2">      <g         id="Page-1"         transform="matrix(1.4084662,0,0,1.4084662,124.99977,196.73898)"         style="fill:#ffffff">        <g           id="Group-9"           transform="translate(0,0.362049)"           style="fill:#ffffff">          <polygon             id="Fill-1"             points="158.72034,63.455229 241.26918,284.75014 291.4964,284.75014 374.04525,63.455229 323.81987,63.455229 266.38371,217.42916 208.94572,63.455229 "             style="fill:#ffffff" />          <path             d="M 36.664823,219.26312 5.5156361e-4,245.86181 C 14.241924,266.96175 42.838659,289.16255 81.233002,289.16255 c 43.156178,0 76.897158,-26.4535 76.897158,-67.59481 0,-26.8909 -15.66624,-47.39724 -47.89043,-62.16592 -4.44009,-2.03629 -22.733611,-10.16679 -26.241556,-11.64806 -16.958742,-7.16197 -25.20278,-15.19873 -25.20278,-24.83439 0,-9.99587 7.791755,-19.65359 23.739298,-19.65359 11.158132,0 21.384118,5.24696 31.190918,16.02207 L 148.57892,94.001359 C 134.674,72.64228 108.82957,59.373259 81.107981,59.373259 c -36.677142,0 -68.914196,23.626943 -68.914196,63.343951 0,27.62419 15.695661,49.01084 47.818726,62.73931 9.402321,4.02114 15.995345,6.81645 23.40836,9.98117 10.597375,4.52286 27.723429,11.66093 27.723429,26.80269 0,15.13256 -14.987825,22.95797 -31.183571,22.95797 -14.610921,0 -30.010577,-9.23685 -43.295906,-25.93523"             id="Fill-2"             style="fill:#ffffff"             inkscape:connector-curvature="0" />          <path             d="m 467.53694,244.28717 c -10.7132,0 -19.71288,-6.46727 -24.48942,-15.64348 -3.62562,-6.96164 -3.76534,-18.0308 -3.76534,-27.44408 v -91.90175 h 51.18878 L 507.57127,63.455413 H 439.28218 V 0.26400014 h -46.8682 V 208.34503 c 0.0533,9.64301 0.55708,18.46636 4.21027,30.04275 10.19473,29.54287 37.83726,50.7733 70.91269,50.7733 18.91312,0 38.30609,-7.26488 52.55666,-20.61292 l -29.35606,-33.54379 c -6.19405,5.41787 -14.75248,9.2828 -23.2006,9.2828"             id="Fill-5"             style="fill:#ffffff"             inkscape:connector-curvature="0" />          <path             d="m 641.9978,240.24361 48.44383,-62.63823 c 10.83639,-14.0648 17.05067,-30.65107 17.05067,-47.43583 0,-19.41467 -7.85978,-37.353581 -22.13057,-50.512332 C 671.61676,66.983649 653.417,60.005467 634.11412,60.005467 c -20.2571,0 -37.8722,6.652889 -50.94242,19.238242 -12.55543,12.087306 -20.38211,29.122011 -22.63985,49.262621 l -0.44125,3.95313 h 45.52606 l 0.14157,-2.15208 c 1.00201,-15.21526 13.45631,-27.13349 28.35589,-27.13349 15.51548,0 29.12991,13.11097 29.12991,28.05791 0,9.60994 -8.00319,19.76202 -15.50262,29.40871 l -93.82464,124.10761 h 156.07595 v -44.50451 z"             id="Fill-7"             style="fill:#ffffff"             inkscape:connector-curvature="0" />        </g>      </g>    </g>  </g></svg>
