<?xml version="1.0" encoding="UTF-8" standalone="no"?><svg   xmlns:dc="http://purl.org/dc/elements/1.1/"   xmlns:cc="http://creativecommons.org/ns#"   xmlns:rdf="http://www.w3.org/1999/02/22-rdf-syntax-ns#"   xmlns:svg="http://www.w3.org/2000/svg"   xmlns="http://www.w3.org/2000/svg"   xmlns:sodipodi="http://sodipodi.sourceforge.net/DTD/sodipodi-0.dtd"   xmlns:inkscape="http://www.inkscape.org/namespaces/inkscape"   width="101.19115"   height="160.70888"   id="svg2"   sodipodi:version="0.32"   inkscape:version="0.92.4 (5da689c313, 2019-01-14)"   version="1.0"   inkscape:output_extension="org.inkscape.output.svg.inkscape"   sodipodi:docname="TV3 (Sweden) logo.svg">  <metadata     id="metadata17">    <rdf:RDF>      <cc:Work         rdf:about="">        <dc:format>image/svg+xml</dc:format>        <dc:type           rdf:resource="http://purl.org/dc/dcmitype/StillImage" />      </cc:Work>    </rdf:RDF>  </metadata>  <defs     id="defs15">    <inkscape:perspective       sodipodi:type="inkscape:persp3d"       inkscape:vp_x="0 : 383.5 : 1"       inkscape:vp_y="0 : 1000 : 0"       inkscape:vp_z="389 : 383.5 : 1"       inkscape:persp3d-origin="194.5 : 255.66667 : 1"       id="perspective19" />  </defs>  <sodipodi:namedview     pagecolor="#ffffff"     bordercolor="#666666"     borderopacity="1"     objecttolerance="10"     gridtolerance="10"     guidetolerance="10"     inkscape:pageopacity="0"     inkscape:pageshadow="2"     inkscape:window-width="1366"     inkscape:window-height="705"     id="namedview13"     showgrid="false"     inkscape:zoom="1.2307692"     inkscape:cx="137.625"     inkscape:cy="121.45884"     inkscape:window-x="-8"     inkscape:window-y="-8"     inkscape:window-maximized="1"     inkscape:current-layer="g2200" />  <g     inkscape:label="Layer 1"     inkscape:groupmode="layer"     id="layer1"     transform="translate(-69,-728.36217)">    <g       clip-path="url(#id4)"       id="g2200"       transform="matrix(0.06259272,0,0,-0.06259272,69,928.36218)">      <path         style="fill:#ffffff;fill-rule:nonzero;stroke:none"         d="M 0,627.727 H 1616.66 V 944.18 H 0 Z"         id="path2204"         inkscape:connector-curvature="0" />      <path         style="fill:#ffffff;fill-rule:nonzero;stroke:none"         d="m 1271.17,2265.47 c 224.79,-58.97 334.32,-219.16 334.32,-449.48 0,-443.77 -404.54,-629.24 -792.201,-629.24 -457.883,0 -828.6562,233.18 -800.5156,736 H 459.398 c -5.628,-233.18 109.536,-348.35 351.118,-348.35 162.968,0 317.434,70.23 317.434,241.59 0,216.3 -157.329,266.87 -348.255,266.87 -42.172,0 -84.34,-2.78 -126.422,-5.63 v 331.46 c 42.082,2.86 84.25,-5.63 126.422,-2.86 140.36,0 317.345,36.54 317.345,205.13 0,126.42 -126.419,196.64 -280.895,196.64 -193.872,0 -306.172,-101.14 -303.407,-278.12 H 66.1133 c 11.2578,438.23 328.6917,665.78 747.1757,665.78 339.861,0 730.381,-143.3 730.381,-542.13 0,-171.36 -92.65,-351.2 -272.5,-382.03 v -5.63"         id="path2206"         inkscape:connector-curvature="0" />    </g>  </g></svg>
